Coordinates
version=1
nRows=19
nColumns=34
inDegrees=yes

Units are S.I. units (second, meters, Newtons, ...)
If the header above contains a line with 'inDegrees', this indicates whether rotational values are in degrees (yes) or radians (no).

endheader
time	pelvis_tilt	pelvis_list	pelvis_rotation	pelvis_tx	pelvis_ty	pelvis_tz	hip_flexion_r	hip_adduction_r	hip_rotation_r	knee_angle_r	ankle_angle_r	subtalar_angle_r	mtp_angle_r	hip_flexion_l	hip_adduction_l	hip_rotation_l	knee_angle_l	ankle_angle_l	subtalar_angle_l	mtp_angle_l	lumbar_extension	lumbar_bending	lumbar_rotation	arm_flex_r	arm_add_r	arm_rot_r	elbow_flex_r	pro_sup_r	arm_flex_l	arm_add_l	arm_rot_l	elbow_flex_l	pro_sup_l
      1.93000000	      1.81601751	     -0.04520731	     -3.36921363	      0.24188725	      0.88640609	      0.22938382	    -23.87842306	      1.80534724	     -9.25059663	    -14.98686527	     -0.35789666	     31.65005329	     84.00844425	     26.21177632	      3.92039717	     -5.29867341	    -12.44031425	     -3.72101204	     -1.12401533	     12.05832996	     -7.99828801	      0.89646409	      7.09856102	      1.81145821	    -23.46912079	      6.79516546	     41.97975814	     90.00000000	    -10.06236397	    -12.14204340	     18.62135447	      7.27385377	     90.00000000
      1.94000000	      1.41439344	      0.54493858	     -3.18929676	      0.25859360	      0.88541881	      0.22899845	    -23.10474079	      1.02971749	     -9.18739055	    -17.07668005	     -2.64211488	     30.98263765	     84.41700573	     26.81931542	      4.75051118	     -4.13928476	    -14.25851521	     -4.82800765	     -3.19582193	     12.21537363	     -7.29808996	      0.18137819	      6.68530461	      1.33640488	    -23.20815830	      6.59249379	     41.97758884	     90.00000000	    -10.12959995	    -12.03438610	     18.11910500	      6.63988653	     90.00000000
      1.95000000	      0.78843474	      1.09781778	     -2.85076933	      0.27490620	      0.88444035	      0.22870205	    -21.82573956	      0.37329154	     -9.10411630	    -19.43093751	     -5.29769856	     30.22397989	     88.37465813	     28.00003519	      5.54231554	     -2.87658029	    -17.12978984	     -5.35880530	     -5.85861130	     14.68332825	     -6.40092823	     -0.53261911	      6.08928350	      0.92355912	    -22.88700193	      6.55366443	     41.80796281	     90.00000000	    -10.22339516	    -12.00920959	     16.91934743	      6.25229621	     90.00000000
      1.96000000	      0.29127559	      1.71218137	     -2.55028689	      0.29084503	      0.88405277	      0.22849963	    -20.35937002	     -0.39677877	     -8.97759334	    -22.25992683	     -8.58848854	     28.78696453	     88.95481361	     29.02879422	      6.31015610	     -2.28975673	    -19.85413590	     -5.29081342	     -7.45232435	     14.43239818	     -5.72498926	     -1.31326096	      5.55514849	      0.47185871	    -22.50254270	      6.25458683	     41.67151751	     90.00000000	    -10.09622168	    -11.93529297	     16.35354790	      5.67143225	     90.00000000
      1.97000000	     -0.02611561	      2.44648335	     -2.28750153	      0.30673785	      0.88405986	      0.22823966	    -18.82254631	     -1.36433033	     -8.95032937	    -25.34374624	    -12.24416303	     27.12024648	     89.37731626	     29.45706236	      7.19766685	     -1.83681188	    -21.64841891	     -6.20354423	     -8.86051837	     14.19790821	     -5.27160178	     -2.21556401	      5.10789913	     -0.03208391	    -22.12741727	      5.87472460	     41.55500471	     90.00000000	     -9.89234131	    -11.91477277	     15.63265714	      5.29463177	     90.00000000
      1.98000000	     -0.18632985	      3.22330363	     -2.21879999	      0.32243367	      0.88439190	      0.22839875	    -17.24864615	     -2.41006587	     -8.60669282	    -28.57220813	    -15.70381589	     25.85860148	     89.59997690	     29.53341590	      8.01039292	     -1.75225586	    -23.07928056	     -6.89513743	     -9.45463667	     14.00760963	     -5.02658615	     -3.19307609	      4.96412176	     -0.63940662	    -21.77358710	      5.56273306	     41.51391403	     90.00000000	     -9.55141012	    -11.96196138	     15.03460838	      5.06399697	     90.00000000
      1.99000000	     -0.26641647	      3.99766494	     -2.20270208	      0.33789721	      0.88499945	      0.22863402	    -15.57284098	     -3.42144673	     -8.01310877	    -31.96841827	    -18.71264263	     24.66562339	     89.91087373	     29.33676420	      8.87521892	     -1.66444319	    -24.28021688	     -6.20101955	     -9.69463255	     14.00536168	     -4.90902879	     -4.13702006	      4.91304974	     -1.23800974	    -21.43232343	      5.21657963	     41.44611050	     90.00000000	     -9.13413447	    -12.03048226	     14.51164138	      5.04149492	     90.00000000
      2.00000000	     -0.48777014	      4.69943225	     -2.24826800	      0.35302440	      0.88550180	      0.22898532	    -13.52273991	     -4.27211164	     -7.11303935	    -35.49268305	    -22.13412151	     22.62191900	     90.31272268	     29.10943848	      9.65532816	     -1.54280185	    -25.23587004	     -5.32844090	     -9.80235970	     13.90277047	     -4.66530216	     -4.99715205	      5.01011411	     -1.90029580	    -21.11002281	      4.70347073	     41.31408558	     90.00000000	     -8.56209602	    -12.10871273	     13.88064478	      5.03160861	     90.00000000
      2.01000000	     -0.85559190	      5.11846749	     -2.36703462	      0.36759239	      0.88592527	      0.22961789	    -11.07541130	     -4.64365745	     -5.83010455	    -39.17640790	    -25.81256442	     18.57128557	     88.88723078	     29.03341498	     10.01322173	     -1.84957316	    -26.17507785	     -3.85860861	     -9.23171725	     11.07890305	     -4.32094856	     -5.50831058	      5.15130472	     -2.46310219	    -20.71349285	      3.90374078	     41.15320202	     90.00000000	     -8.05331135	    -12.21827527	     12.10784323	      5.47128160	     90.00000000
      2.02000000	     -1.09979503	      5.65426561	     -2.61773232	      0.38184925	      0.88654722	      0.23025736	     -8.51508481	     -5.22564346	     -4.64440281	    -43.02690327	    -28.43548237	     14.39448976	     88.95797249	     28.64485125	     10.41967587	     -2.39814051	    -26.69238821	     -2.65113135	     -8.98987095	     11.17534228	     -4.11798471	     -6.15407727	      5.36967248	     -2.87049430	    -20.42672389	      3.71647571	     40.77262713	     90.00000000	     -7.44826623	    -12.34108968	     11.87494415	      5.88667517	     90.00000000
      2.03000000	     -1.26127618	      6.30757031	     -2.96641324	      0.39589421	      0.88739303	      0.23100186	     -5.90058542	     -5.95731247	     -3.46064366	    -46.89353651	    -29.28564765	     10.69873905	     89.29569370	     28.05596887	     10.86814990	     -3.17343603	    -27.00496128	     -1.14932408	     -8.27304577	     11.39222573	     -3.99595688	     -6.92188127	      5.58528846	     -3.17001228	    -20.20339120	      3.68681462	     40.31900274	     90.00000000	     -6.86083727	    -12.53581515	     11.69591421	      6.60189187	     90.00000000
      2.04000000	     -1.63404968	      6.29110690	     -3.24032990	      0.40934814	      0.88823389	      0.23229816	     -3.06774865	     -5.59943298	     -1.96522394	    -50.42392341	    -29.07808846	      6.14153814	     89.94766761	     27.74180992	     10.51069502	     -4.08274828	    -27.51912388	      0.01286961	     -6.83970885	     11.57569995	     -3.68955540	     -6.98119892	      5.74136796	     -3.24289415	    -19.94224563	      3.73884192	     39.49397698	     90.00000000	     -6.30396287	    -12.67823867	     11.57769922	      7.33930120	     90.00000000
      2.05000000	     -1.71506206	      6.11471880	     -3.49750798	      0.42286425	      0.88978218	      0.23353911	     -0.56020112	     -5.33115970	     -1.26653982	    -53.55304594	    -28.17473817	      4.10592920	     90.01933981	     26.90228374	     10.10144349	     -4.76450470	    -27.74079290	      1.60076838	     -5.65016122	     11.76676850	     -3.75439150	     -6.83386359	      5.70511081	     -3.21689567	    -19.77904490	      4.04370853	     38.69943071	     90.00000000	     -5.79657986	    -12.81952257	     11.56580599	      8.32076027	     90.00000000
      2.06000000	     -1.91806409	      6.29096647	     -3.84976663	      0.43615677	      0.89102681	      0.23402004	      2.08564317	     -5.27721228	     -0.18083208	    -56.48961968	    -26.25499689	      2.87601699	     89.82576740	     26.14396491	     10.09592401	     -5.55723114	    -27.70201042	      2.76963912	     -4.76544372	     11.83525699	     -3.61599862	     -6.96900586	      5.73666155	     -3.17410106	    -19.69388322	      4.39296918	     37.85446491	     90.00000000	     -5.36920645	    -12.94442778	     11.70091925	      9.49431388	     90.00000000
      2.07000000	     -1.88401380	      6.21859557	     -4.08128077	      0.44943023	      0.89298286	      0.23473715	      4.41426882	     -5.08582320	      0.34094008	    -58.99003737	    -24.33905053	      1.94668226	     89.66974935	     25.01524158	      9.92834910	     -6.15024392	    -27.53069215	      4.02317687	     -4.23854810	     11.95516988	     -3.76269503	     -6.88042338	      5.72817294	     -3.24653351	    -19.61865671	      4.59901663	     37.24150044	     90.00000000	     -4.77276340	    -13.11653947	     11.75264842	     10.63095774	     90.00000000
      2.08000000	     -1.99884464	      6.11372137	     -4.51506104	      0.46229358	      0.89509858	      0.23574158	      6.93892182	     -4.73364930	      1.19426289	    -61.06702588	    -22.40382860	      0.93727196	     89.45578120	     24.05767624	      9.63819779	     -6.88547178	    -27.29049751	      4.91369254	     -3.46375573	     12.00842029	     -3.77734628	     -6.73320647	      5.79312581	     -3.11662708	    -19.53689596	      5.02620570	     36.28376792	     90.00000000	     -4.28779051	    -13.30607426	     11.90417311	     11.97585760	     90.00000000
      2.09000000	     -2.21767537	      5.88107557	     -4.85967662	      0.47511100	      0.89727456	      0.23697397	      9.49292398	     -4.13332160	      1.92069414	    -62.75358897	    -20.83695217	     -0.36591484	     87.99209964	     23.18743767	      9.21688953	     -7.40657193	    -27.08324829	      5.89503611	     -2.21421450	     11.13150903	     -3.63701027	     -6.46583980	      5.50734849	     -2.39388172	    -19.56565479	      7.09801171	     34.30465487	     90.00000000	     -4.05191581	    -13.55011907	     12.21675138	     13.53270943	     90.00000000
      2.10000000	     -2.14543181	      5.71609679	     -5.10025965	      0.48818952	      0.89993569	      0.23767026	     11.59269540	     -3.69960942	      2.42971520	    -63.99310857	    -18.81464748	     -0.94094238	     87.91298385	     21.77042138	      9.12805017	     -7.25271358	    -26.41130395	      6.63823512	     -2.05135112	     11.12592123	     -3.86675897	     -6.22570769	      5.39393615	     -2.54011575	    -19.51789315	      7.07957125	     33.96655531	     90.00000000	     -3.54829206	    -13.77096062	     12.16743119	     14.96747951	     90.00000000
      2.11000000	     -2.10932540	      5.61563120	     -5.42649928	      0.50125996	      0.90254231	      0.23866149	     13.67976629	     -3.29824347	      2.98069098	    -64.87948085	    -16.71361916	     -1.13152315	     87.58938860	     20.40726608	      9.04966337	     -7.27175047	    -25.75808563	      7.29901255	     -1.89946374	     11.02367659	     -4.01929021	     -6.07744966	      5.24770692	     -2.44964068	    -19.40844825	      7.27673436	     33.12475941	     90.00000000	     -3.23880885	    -14.08591590	     12.29319436	     16.78245581	     90.00000000
